<svg id="Layer_1" data-name="Layer 1" xmlns="http://www.w3.org/2000/svg" viewBox="0 0 665.82 137.36"><path d="M125.44,120.43q0,3.19-1.5,4.62t-4.86,1.43h-2.77v6H114V114.79h5.23c2.2,0,3.8.45,4.78,1.36A5.56,5.56,0,0,1,125.44,120.43Zm-2.47,0a3.58,3.58,0,0,0-.92-2.71,4.57,4.57,0,0,0-3.14-.85h-2.6v7.41h2.27a7.54,7.54,0,0,0,2.72-.36,2.44,2.44,0,0,0,1.27-1.18A5.45,5.45,0,0,0,123,120.48Z" style="fill:#fff"/><path d="M139,132.47l-4.5-7.22h-3.08v7.22H129V114.79h5.49c2.19,0,3.76.4,4.72,1.21a4.67,4.67,0,0,1,1.42,3.76,6,6,0,0,1-.87,3.43,4.36,4.36,0,0,1-2.84,1.69l4.78,7.59Zm-.74-12.54a2.81,2.81,0,0,0-.89-2.4,4.83,4.83,0,0,0-2.85-.66h-3.1v6.28h3a6.93,6.93,0,0,0,2.33-.31,2.12,2.12,0,0,0,1.2-1A4.13,4.13,0,0,0,138.22,119.93Z" style="fill:#fff"/><path d="M158.35,123.63c0,3.17-.59,5.5-1.79,7a7.63,7.63,0,0,1-10.8,0q-1.77-2.27-1.77-7c0-3.1.59-5.41,1.75-6.93a7.62,7.62,0,0,1,10.84,0Q158.35,118.89,158.35,123.63Zm-2.47,0a10.36,10.36,0,0,0-1.1-5.4,4.64,4.64,0,0,0-7.21,0,10.36,10.36,0,0,0-1.1,5.4,10.17,10.17,0,0,0,1.11,5.4,4.63,4.63,0,0,0,7.18,0A10.15,10.15,0,0,0,155.88,123.63Z" style="fill:#fff"/><path d="M173.68,120.43q0,3.19-1.5,4.62t-4.86,1.43h-2.77v6h-2.36V114.79h5.23c2.2,0,3.8.45,4.78,1.36A5.56,5.56,0,0,1,173.68,120.43Zm-2.47,0a3.58,3.58,0,0,0-.92-2.71,4.57,4.57,0,0,0-3.14-.85h-2.6v7.41h2.27a7.54,7.54,0,0,0,2.72-.36,2.44,2.44,0,0,0,1.27-1.18A5.45,5.45,0,0,0,171.21,120.48Z" style="fill:#fff"/><path d="M177.26,132.47V114.79h10.79v2.13h-8.43v5.16h7.21v2.15h-7.21v6.09h8.43v2.15Z" style="fill:#fff"/><path d="M201.9,132.47l-4.5-7.22h-3.07v7.22H192V114.79h5.48c2.19,0,3.77.4,4.72,1.21a4.67,4.67,0,0,1,1.43,3.76,5.89,5.89,0,0,1-.88,3.43,4.36,4.36,0,0,1-2.83,1.69l4.78,7.59Zm-.74-12.54a2.78,2.78,0,0,0-.89-2.4,4.83,4.83,0,0,0-2.85-.66h-3.09v6.28h2.94a6.93,6.93,0,0,0,2.33-.31,2.09,2.09,0,0,0,1.2-1A4.13,4.13,0,0,0,201.16,119.93Z" style="fill:#fff"/><path d="M213.62,116.92v15.55h-2.35V116.92h-5.85v-2.13h14.05v2.13Z" style="fill:#fff"/><path d="M228.49,125.63v6.84H226.1v-6.72l-5.58-11h2.66l4.15,8.59,4.23-8.59h2.54Z" style="fill:#fff"/><path d="M256,132.47l-1.2-1.42a7.74,7.74,0,0,1-5.12,1.79,7,7,0,0,1-4.56-1.36,4.4,4.4,0,0,1-1.66-3.61,5,5,0,0,1,.36-2,4.79,4.79,0,0,1,1.13-1.57,15,15,0,0,1,2.62-1.82,12.77,12.77,0,0,1-1.47-2,4,4,0,0,1-.6-2c0-2.68,1.58-4,4.73-4a4.85,4.85,0,0,1,3.22,1,3.07,3.07,0,0,1,1.14,2.46,4.19,4.19,0,0,1-.92,2.62,10.26,10.26,0,0,1-2.92,2.43l4.23,5a8.29,8.29,0,0,0,1.67-3.46l2,.5a11.1,11.1,0,0,1-2.3,4.59l2.5,2.95ZM248.83,124a15.39,15.39,0,0,0-1.93,1.42,3.48,3.48,0,0,0-.85,1.1,3.39,3.39,0,0,0-.25,1.39,2.61,2.61,0,0,0,1.08,2.17,4.51,4.51,0,0,0,2.81.83,5.31,5.31,0,0,0,2.4-.47,8.76,8.76,0,0,0,1.42-.88Zm3.48-6.15a1.6,1.6,0,0,0-.55-1.25,2.38,2.38,0,0,0-1.64-.5,2.55,2.55,0,0,0-1.81.58,2.17,2.17,0,0,0-.6,1.65,2.62,2.62,0,0,0,.52,1.45q.53.76,1.2,1.59a7.38,7.38,0,0,0,2.11-1.67A2.88,2.88,0,0,0,252.31,117.86Z" style="fill:#fff"/><path d="M271.58,116.92v5.16h7.07v2.15h-7.07v8.24h-2.36V114.79H279.9v2.13Z" style="fill:#fff"/><path d="M280.11,132.47l6-17.68h3.06l6,17.68h-2.49l-1.53-4.6H284l-1.5,4.6Zm4.63-6.75h5.73l-2.86-8.61Z" style="fill:#fff"/><path d="M311.21,129.38a8,8,0,0,1-1.72,2.05,6.21,6.21,0,0,1-2,1,9.22,9.22,0,0,1-2.73.36c-2.64,0-4.59-.77-5.85-2.29s-1.88-3.84-1.88-6.92.63-5.38,1.87-6.92,3.17-2.3,5.76-2.3a8.91,8.91,0,0,1,2.75.39,6.1,6.1,0,0,1,2.05,1,6.49,6.49,0,0,1,1.52,1.89L309,119a5.75,5.75,0,0,0-1.14-1.43,4.21,4.21,0,0,0-1.38-.78,5.56,5.56,0,0,0-1.87-.29,4.44,4.44,0,0,0-3.9,1.77,9.33,9.33,0,0,0-1.24,5.35,9.53,9.53,0,0,0,1.22,5.32,4.44,4.44,0,0,0,3.94,1.79,4.86,4.86,0,0,0,4.61-2.64Z" style="fill:#fff"/><path d="M320.72,132.47H313.5v-2.05h2.44V116.79H313.5v-2h7.22v2h-2.43v13.63h2.43Z" style="fill:#fff"/><path d="M324.34,132.47V114.79h2.36v15.53h8v2.15Z" style="fill:#fff"/><path d="M343.78,132.47h-7.22v-2.05H339V116.79h-2.44v-2h7.22v2h-2.44v13.63h2.44Z" style="fill:#fff"/><path d="M353.8,116.92v15.55h-2.35V116.92H345.6v-2.13h14v2.13Z" style="fill:#fff"/><path d="M368.67,125.63v6.84h-2.39v-6.72l-5.58-11h2.66l4.15,8.59,4.23-8.59h2.54Z" style="fill:#fff"/><path d="M397.6,132.47V117.81l-4.88,9.84h-1.47l-4.83-9.84v14.66h-2.25V114.79h3.19l4.68,9.62,4.72-9.62h3.09v17.68Z" style="fill:#fff"/><path d="M402.82,132.47l6-17.68h3.06l6,17.68h-2.49l-1.53-4.6h-7.19l-1.5,4.6Zm4.63-6.75h5.73l-2.86-8.61Z" style="fill:#fff"/><path d="M431.15,132.47l-8-15.18v15.18h-2.27V114.79h3.46l7.3,13.88V114.79h2.27v17.68Z" style="fill:#fff"/><path d="M436.92,132.47l6-17.68H446l6,17.68h-2.49l-1.53-4.6h-7.19l-1.5,4.6Zm4.62-6.75h5.74l-2.87-8.61Z" style="fill:#fff"/><path d="M465.87,119a4.54,4.54,0,0,0-4.43-2.53,4.46,4.46,0,0,0-3.91,1.76,9.55,9.55,0,0,0-1.23,5.41c0,2.48.44,4.27,1.34,5.39a4.77,4.77,0,0,0,4,1.67,7.53,7.53,0,0,0,1.89-.23,13.86,13.86,0,0,0,1.89-.69v-4.19h-4.28V123.5h6.64v7.61a15.86,15.86,0,0,1-2.86,1.27,10.56,10.56,0,0,1-3.28.46c-2.66,0-4.62-.76-5.9-2.29s-1.91-3.82-1.91-6.9.64-5.43,1.92-7a7.07,7.07,0,0,1,5.73-2.29,8.54,8.54,0,0,1,3.75.77,5.94,5.94,0,0,1,2.58,2.56Z" style="fill:#fff"/><path d="M472.23,132.47V114.79H483v2.13h-8.43v5.16h7.21v2.15h-7.21v6.09H483v2.15Z" style="fill:#fff"/><path d="M500.36,132.47V117.81l-4.89,9.84H494l-4.84-9.84v14.66h-2.24V114.79h3.19l4.68,9.62,4.71-9.62h3.09v17.68Z" style="fill:#fff"/><path d="M507.24,132.47V114.79H518v2.13H509.6v5.16h7.21v2.15H509.6v6.09H518v2.15Z" style="fill:#fff"/><path d="M532.18,132.47l-8-15.18v15.18h-2.27V114.79h3.46l7.31,13.88V114.79H535v17.68Z" style="fill:#fff"/><path d="M546,116.92v15.55h-2.35V116.92h-5.85v-2.13h14v2.13Z" style="fill:#fff"/><polygon points="167.51 69.47 167.51 4.82 181.22 4.82 239.51 64.47 239.51 4.82 263.02 4.82 263.02 96.41 241.96 96.41 191.02 45.47 167.51 69.47" style="fill:#fff"/><path d="M190.75,55.16,167.51,78.77V96.41h65.13Zm-.44,37.11h-8v-8h8Zm0-10.41h-8v-8h8Zm10.42,10.41h-8v-8h8Zm-8-10.41v-8h8v8Z" style="fill:#bc955c"/><polygon points="274.21 69.47 274.21 4.82 287.93 4.82 346.22 64.47 346.22 4.82 369.73 4.82 369.73 96.41 348.67 96.41 297.73 45.47 274.21 69.47" style="fill:#fff"/><path d="M297.45,55.16,274.21,78.77V96.41h65.14ZM297,92.27h-8v-8h8Zm0-10.41h-8v-8h8Zm10.42,10.41h-8v-8h8Zm-8-10.41v-8h8v8Z" style="fill:#bc955c"/><path d="M81.54,75.87V96.41H5.14V80.19l43-54.83H6.24V4.82H79.71V21l-43,54.83Z" style="fill:#fff"/><path d="M159.64,76.39v20H91.17V4.82h66.89v20h-43V40.28h37.89V59.64H115.05V76.39Z" style="fill:#fff"/><path d="M442.32,78.62H406.26l-6.7,17.79H374.94L412.59,4.82h23.76l37.78,91.59H449Zm-7.06-19.11-11-29.31-11,29.31Z" style="fill:#fff"/><path d="M515.8,72.08H502.64V96.41H478.52V4.82h39c23.27,0,37.89,13,37.89,33.89,0,13.48-6.09,23.42-16.69,28.92l18.4,28.78H531.28Zm.25-46.85H502.64V52.05h13.41c10,0,15-5,15-13.34S526,25.23,516.05,25.23Z" style="fill:#fff"/><path d="M442.32,78.62H406.26l-6.7,17.79H374.94L412.59,4.82h23.76l37.78,91.59H449Zm-7.06-19.11-11-29.31-11,29.31Z" style="fill:#fff"/><path d="M628.88,78.62H592.82l-6.7,17.79H561.5L599.15,4.82h23.76l37.77,91.59H635.59Zm-7.06-19.11-11-29.31-11,29.31Z" style="fill:#fff"/></svg>