<svg id="Layer_1" data-name="Layer 1" xmlns="http://www.w3.org/2000/svg" viewBox="0 0 666.45 137.36"><path d="M125.76,120.43q0,3.19-1.5,4.62t-4.87,1.43h-2.76v6h-2.36V114.79h5.22c2.21,0,3.8.45,4.79,1.36A5.59,5.59,0,0,1,125.76,120.43Zm-2.48,0a3.5,3.5,0,0,0-.92-2.7,4.49,4.49,0,0,0-3.13-.86h-2.6v7.41h2.27a7.57,7.57,0,0,0,2.72-.36,2.46,2.46,0,0,0,1.26-1.18A5.29,5.29,0,0,0,123.28,120.48Z" style="fill:#231f20"/><path d="M139.27,132.47l-4.5-7.22H131.7v7.22h-2.36V114.79h5.48c2.2,0,3.77.4,4.72,1.21a4.67,4.67,0,0,1,1.43,3.76,6,6,0,0,1-.87,3.43,4.38,4.38,0,0,1-2.84,1.69l4.78,7.59Zm-.74-12.54a2.81,2.81,0,0,0-.88-2.4,4.83,4.83,0,0,0-2.85-.66h-3.1v6.28h2.94a6.89,6.89,0,0,0,2.33-.31,2.11,2.11,0,0,0,1.21-1A4.28,4.28,0,0,0,138.53,119.93Z" style="fill:#231f20"/><path d="M158.67,123.63q0,4.75-1.79,7a6.52,6.52,0,0,1-5.39,2.22,6.45,6.45,0,0,1-5.41-2.26q-1.77-2.27-1.77-7t1.75-6.93q1.74-2.28,5.43-2.28a6.5,6.5,0,0,1,5.41,2.23Q158.67,118.89,158.67,123.63Zm-2.48,0a10.19,10.19,0,0,0-1.1-5.39,4.61,4.61,0,0,0-7.2,0,10.18,10.18,0,0,0-1.11,5.39,10.16,10.16,0,0,0,1.12,5.4,4.62,4.62,0,0,0,7.17,0Q156.2,127.35,156.19,123.63Z" style="fill:#231f20"/><path d="M174,120.43q0,3.19-1.5,4.62t-4.87,1.43h-2.76v6h-2.36V114.79h5.22c2.21,0,3.8.45,4.79,1.36A5.59,5.59,0,0,1,174,120.43Zm-2.48,0a3.5,3.5,0,0,0-.92-2.7,4.49,4.49,0,0,0-3.13-.86h-2.6v7.41h2.27a7.57,7.57,0,0,0,2.72-.36,2.46,2.46,0,0,0,1.26-1.18A5.29,5.29,0,0,0,171.52,120.48Z" style="fill:#231f20"/><path d="M177.58,132.47V114.79h10.79v2.13h-8.43v5.16h7.2v2.15h-7.2v6.09h8.43v2.15Z" style="fill:#231f20"/><path d="M202.22,132.47l-4.51-7.22h-3.07v7.22h-2.36V114.79h5.49c2.19,0,3.76.4,4.71,1.21a4.64,4.64,0,0,1,1.43,3.76,6,6,0,0,1-.87,3.43,4.36,4.36,0,0,1-2.84,1.69l4.78,7.59Zm-.74-12.54a2.81,2.81,0,0,0-.89-2.4,4.83,4.83,0,0,0-2.85-.66h-3.1v6.28h3a6.87,6.87,0,0,0,2.32-.31,2.11,2.11,0,0,0,1.21-1A4.13,4.13,0,0,0,201.48,119.93Z" style="fill:#231f20"/><path d="M213.93,116.92v15.55h-2.34V116.92h-5.86v-2.13h14.06v2.13Z" style="fill:#231f20"/><path d="M228.8,125.63v6.84h-2.38v-6.72l-5.59-11h2.67l4.14,8.59,4.24-8.59h2.53Z" style="fill:#231f20"/><path d="M256.27,132.47l-1.2-1.42a7.69,7.69,0,0,1-5.11,1.79,7,7,0,0,1-4.57-1.36,4.42,4.42,0,0,1-1.65-3.61,5,5,0,0,1,.35-2,5,5,0,0,1,1.13-1.57,15.89,15.89,0,0,1,2.62-1.82,12.09,12.09,0,0,1-1.46-2,4,4,0,0,1-.6-2c0-2.68,1.57-4,4.73-4a4.87,4.87,0,0,1,3.22,1,3.07,3.07,0,0,1,1.14,2.46,4.25,4.25,0,0,1-.92,2.62,10.41,10.41,0,0,1-2.92,2.43l4.22,5a8.17,8.17,0,0,0,1.67-3.46l2,.5a11,11,0,0,1-2.3,4.59l2.5,2.95ZM249.14,124a16.19,16.19,0,0,0-1.93,1.42,3.63,3.63,0,0,0-.85,1.1,3.4,3.4,0,0,0-.24,1.39,2.61,2.61,0,0,0,1.08,2.17,4.43,4.43,0,0,0,2.81.83,5.34,5.34,0,0,0,2.4-.47,8.6,8.6,0,0,0,1.41-.88Zm3.48-6.15a1.63,1.63,0,0,0-.54-1.25,2.41,2.41,0,0,0-1.65-.5,2.53,2.53,0,0,0-1.8.58,2.14,2.14,0,0,0-.61,1.65,2.62,2.62,0,0,0,.52,1.45q.53.76,1.2,1.59a7.44,7.44,0,0,0,2.12-1.67A2.86,2.86,0,0,0,252.62,117.86Z" style="fill:#231f20"/><path d="M271.89,116.92v5.16H279v2.15h-7.08v8.24h-2.36V114.79h10.69v2.13Z" style="fill:#231f20"/><path d="M280.42,132.47l6-17.68h3.06l6,17.68h-2.49l-1.53-4.6h-7.19l-1.51,4.6Zm4.63-6.75h5.74l-2.87-8.61Z" style="fill:#231f20"/><path d="M311.52,129.38a8.16,8.16,0,0,1-1.71,2.05,6.16,6.16,0,0,1-2,1,9.19,9.19,0,0,1-2.72.36c-2.65,0-4.6-.77-5.85-2.29s-1.88-3.84-1.88-6.92.62-5.38,1.87-6.92,3.16-2.29,5.75-2.29a9,9,0,0,1,2.76.38,6.29,6.29,0,0,1,2.05,1,6.65,6.65,0,0,1,1.52,1.89L309.33,119a5.7,5.7,0,0,0-1.13-1.43,4.42,4.42,0,0,0-1.38-.78,5.63,5.63,0,0,0-1.88-.29,4.43,4.43,0,0,0-3.89,1.77,9.33,9.33,0,0,0-1.25,5.35A9.44,9.44,0,0,0,301,129a4.44,4.44,0,0,0,3.94,1.79,4.85,4.85,0,0,0,4.6-2.64Z" style="fill:#231f20"/><path d="M321,132.47h-7.22v-2.05h2.43V116.79h-2.43v-2H321v2H318.6v13.63H321Z" style="fill:#231f20"/><path d="M324.66,132.47V114.79H327v15.53h8v2.15Z" style="fill:#231f20"/><path d="M344.09,132.47h-7.22v-2.05h2.44V116.79h-2.44v-2h7.22v2h-2.43v13.63h2.43Z" style="fill:#231f20"/><path d="M354.12,116.92v15.55h-2.35V116.92h-5.85v-2.13H360v2.13Z" style="fill:#231f20"/><path d="M369,125.63v6.84H366.6v-6.72l-5.59-11h2.67l4.14,8.59,4.24-8.59h2.53Z" style="fill:#231f20"/><path d="M397.92,132.47V117.81L393,127.65h-1.46l-4.84-9.84v14.66h-2.24V114.79h3.19l4.68,9.62,4.72-9.62h3.08v17.68Z" style="fill:#231f20"/><path d="M403.13,132.47l6-17.68h3.06l6,17.68h-2.49l-1.53-4.6h-7.19l-1.51,4.6Zm4.63-6.75h5.74l-2.87-8.61Z" style="fill:#231f20"/><path d="M431.47,132.47l-8-15.18v15.18h-2.27V114.79h3.45L432,128.67V114.79h2.27v17.68Z" style="fill:#231f20"/><path d="M437.23,132.47l6-17.68h3.06l6,17.68h-2.48l-1.53-4.6h-7.19l-1.51,4.6Zm4.63-6.75h5.74l-2.87-8.61Z" style="fill:#231f20"/><path d="M466.19,119a5.09,5.09,0,0,0-1.66-1.84,4.93,4.93,0,0,0-2.78-.69,4.44,4.44,0,0,0-3.9,1.76,9.54,9.54,0,0,0-1.24,5.41c0,2.48.45,4.27,1.34,5.39a4.77,4.77,0,0,0,4,1.67,7.53,7.53,0,0,0,1.89-.23,13.49,13.49,0,0,0,1.9-.69v-4.19h-4.29V123.5h6.65v7.61a16,16,0,0,1-2.87,1.27,10.52,10.52,0,0,1-3.28.46c-2.65,0-4.62-.76-5.89-2.29s-1.91-3.82-1.91-6.9.64-5.43,1.92-7a7.07,7.07,0,0,1,5.73-2.28,8.49,8.49,0,0,1,3.74.76,5.94,5.94,0,0,1,2.58,2.56Z" style="fill:#231f20"/><path d="M472.54,132.47V114.79h10.79v2.13H474.9v5.16h7.2v2.15h-7.2v6.09h8.43v2.15Z" style="fill:#231f20"/><path d="M500.67,132.47V117.81l-4.88,9.84h-1.47l-4.83-9.84v14.66h-2.25V114.79h3.19l4.68,9.62,4.72-9.62h3.09v17.68Z" style="fill:#231f20"/><path d="M507.56,132.47V114.79h10.78v2.13h-8.42v5.16h7.2v2.15h-7.2v6.09h8.42v2.15Z" style="fill:#231f20"/><path d="M532.5,132.47l-8-15.18v15.18h-2.27V114.79h3.45L533,128.67V114.79h2.27v17.68Z" style="fill:#231f20"/><path d="M546.34,116.92v15.55H544V116.92h-5.86v-2.13h14.06v2.13Z" style="fill:#231f20"/><polygon points="167.82 69.47 167.82 4.82 181.54 4.82 239.83 64.47 239.83 4.82 263.34 4.82 263.34 96.41 242.28 96.41 191.33 45.47 167.82 69.47" style="fill:#231f20"/><path d="M191.06,55.16,167.82,78.77V96.41H233Zm-.43,37.11h-8v-8h8Zm0-10.41h-8v-8h8Zm10.42,10.41h-8v-8h8Zm-8-10.41v-8h8v8Z" style="fill:#bc955c"/><polygon points="274.53 69.47 274.53 4.82 288.24 4.82 346.53 64.47 346.53 4.82 370.04 4.82 370.04 96.41 348.98 96.41 298.04 45.47 274.53 69.47" style="fill:#231f20"/><path d="M297.77,55.16,274.53,78.77V96.41h65.13Zm-.43,37.11h-8v-8h8Zm0-10.41h-8v-8h8Zm10.41,10.41h-8v-8h8Zm-8-10.41v-8h8v8Z" style="fill:#bc955c"/><path d="M81.85,75.87V96.41H5.45V80.19l43-54.83H6.55V4.82H80V21L37,75.87Z" style="fill:#231f20"/><path d="M160,76.39v20H91.48V4.82h66.9v20h-43V40.28h37.9V59.64h-37.9V76.39Z" style="fill:#231f20"/><path d="M442.64,78.62H406.57l-6.7,17.79H375.26L412.91,4.82h23.76l37.77,91.59h-25.1Zm-7.07-19.11-11-29.31-11,29.31Z" style="fill:#231f20"/><path d="M629.2,78.62H593.13l-6.7,17.79H561.82L599.47,4.82h23.76L661,96.41H635.9Zm-7.07-19.11-11-29.31-11,29.31Z" style="fill:#231f20"/><path d="M516.12,72.08H503V96.41H478.83V4.82h39c23.28,0,37.9,13,37.9,33.89,0,13.48-6.09,23.42-16.69,28.92l18.39,28.78H531.59Zm.24-46.85H503V52.05h13.4c10,0,15-5,15-13.34S526.35,25.23,516.36,25.23Z" style="fill:#231f20"/></svg>